<svg xmlns="http://www.w3.org/2000/svg" xml:space="preserve" width="2048" height="2048" style="shape-rendering:geometricPrecision;text-rendering:geometricPrecision;image-rendering:optimizeQuality;fill-rule:evenodd;clip-rule:evenodd"><defs><style>.fil0{fill:none}.fil1{fill:#03a9f4}.fil2{fill:#041821}.fil3{fill:#263238}.fil6,.fil7{fill:#00c853;fill-rule:nonzero}.fil7{fill:#2196f3}.fil4,.fil5,.fil8{fill:#37474f;fill-rule:nonzero}.fil5,.fil8{fill:#d50000}.fil8{fill:#ffc400}</style></defs><g id="Layer_x0020_1"><path class="fil0" d="M0 0h2048v2048H0z"/><g id="_221083888"><path class="fil1" d="M1644 1694v39c0 33-278 60-620 60s-620-27-620-60v-39c111 22 347 38 620 38s509-15 620-38z"/><ellipse class="fil2" cx="1024" cy="1321" rx="689" ry="66"/><path class="fil3" d="M1713 1316v349c0 37-308 66-689 66-380 0-689-30-689-66v-349c0 37 308 66 689 66 380 0 689-30 689-66z"/><path class="fil1" d="m1478 1184 50 122c-126 13-305 21-504 21s-378-8-504-21l50-122h907z"/><path class="fil4" d="M1644 1527c-57 10-118 17-181 21-64 5-132 8-200 11v-39c66-3 132-6 198-11 65-5 127-12 184-22v39z"/><path class="fil5" d="M707 1518c23 1 45 2 68 3l-2 39c-22-1-44-2-67-3v-39z"/><path class="fil6" d="M599 1512c24 2 47 3 71 4v39c-24-1-48-3-71-4v-39z"/><path class="fil7" d="M492 1502c23 3 47 5 71 7v39c-24-2-48-4-71-7v-39z"/><path class="fil8" d="M387 1487c22 4 45 7 68 10v39c-23-3-46-6-68-10v-39z"/><g><ellipse class="fil2" cx="1024" cy="860" rx="689" ry="66"/><path class="fil3" d="M1713 854v349c0 37-308 66-689 66-380 0-689-30-689-66V854c0 37 308 66 689 66 380 0 689-30 689-66z"/><path class="fil1" d="m1478 722 50 122c-126 13-305 21-504 21s-378-8-504-21l50-122h907z"/><path class="fil4" d="M1644 1065c-57 10-118 17-181 21-64 5-132 8-200 11v-39c66-3 132-6 198-11 65-5 127-12 184-22v39z"/><path class="fil5" d="M707 1056c23 1 45 2 68 3l-2 39c-22-1-44-2-67-3v-39z"/><path class="fil6" d="M599 1050c24 2 47 3 71 4v39c-24-1-48-3-71-4v-39z"/><path class="fil7" d="M492 1041c23 3 47 5 71 7v39c-24-2-48-4-71-7v-39z"/><path class="fil8" d="M387 1026c22 4 45 7 68 10v39c-23-3-46-6-68-10v-39z"/></g><g><ellipse class="fil2" cx="1024" cy="394" rx="689" ry="66"/><path class="fil3" d="M1713 388v349c0 37-308 66-689 66-380 0-689-30-689-66V388c0 37 308 66 689 66 380 0 689-30 689-66z"/><path class="fil1" d="m1478 256 50 122c-126 13-305 21-504 21s-378-8-504-21l50-122h907z"/><path class="fil4" d="M1644 599c-57 10-118 17-181 21-64 5-132 8-200 11v-39c66-3 132-6 198-11 65-5 127-12 184-22v39z"/><path class="fil5" d="M707 590c23 1 45 2 68 3l-2 39c-22-1-44-2-67-3v-39z"/><path class="fil6" d="M599 584c24 2 47 3 71 4v39c-24-1-48-3-71-4v-39z"/><path class="fil7" d="M492 574c23 3 47 5 71 7v39c-24-2-48-4-71-7v-39z"/><path class="fil8" d="M387 560c22 4 45 7 68 10v39c-23-3-46-6-68-10v-39z"/></g></g><path class="fil0" d="M0 0h2048v2048H0z"/></g></svg>